<svg width="330" height="330" viewBox="0 0 330 330" fill="none" xmlns="http://www.w3.org/2000/svg">
<path d="M85.07 165.61C84.65 166.07 84.65 166.53 85.07 166.99L123.89 210.03C124.665 210.896 125.16 211.977 125.31 213.13C125.88 217.58 127.18 223.84 126.69 228.54C126.673 228.716 126.603 228.882 126.488 229.016C126.374 229.15 126.221 229.246 126.05 229.29C122.33 230.3 113.4 227.7 109.56 226.93C108.696 226.755 107.912 226.31 107.32 225.66C92.5 209.347 77.66 192.883 62.8 176.27C57.44 170.27 57.34 162.34 62.79 156.3C77.6833 139.78 92.4167 123.443 106.99 107.29C107.77 106.425 108.803 105.83 109.94 105.59L124.06 102.61C124.445 102.529 124.844 102.542 125.223 102.646C125.602 102.751 125.951 102.945 126.241 103.211C126.531 103.478 126.754 103.81 126.891 104.18C127.029 104.55 127.076 104.948 127.03 105.34L125.19 120.75C125.151 121.056 125.022 121.342 124.82 121.57L85.07 165.61Z" fill="white"/>
<path d="M249.4 165.88L209.89 121.99C209.441 121.489 209.158 120.86 209.08 120.19L207.38 105.23C207.336 104.845 207.385 104.455 207.522 104.093C207.659 103.73 207.88 103.406 208.167 103.146C208.455 102.886 208.8 102.698 209.174 102.598C209.548 102.498 209.941 102.488 210.32 102.57L224.78 105.69C225.683 105.885 226.502 106.361 227.12 107.05C241.513 123.01 255.96 139.053 270.46 155.18C277.81 163.35 276.87 170.38 269.81 178.2C255.35 194.213 240.907 210.243 226.48 226.29C226.26 226.537 225.987 226.69 225.66 226.75C220.51 227.75 214.09 229.75 208.9 229.46C208.56 229.447 208.307 229.29 208.14 228.99C207.553 227.917 207.333 226.75 207.48 225.49C208.26 218.83 208.4 212.11 211 209.25C223.833 195.11 236.633 180.94 249.4 166.74C249.66 166.453 249.66 166.167 249.4 165.88Z" fill="white"/>
<path d="M145.53 162.97L144.14 174.37C144.111 174.617 144.018 174.852 143.868 175.05C143.719 175.249 143.519 175.404 143.29 175.5L132.91 179.87C132.684 179.963 132.438 179.995 132.196 179.964C131.954 179.932 131.724 179.838 131.53 179.69L122.49 172.87C122.29 172.721 122.133 172.52 122.036 172.29C121.94 172.06 121.906 171.808 121.94 171.56L123.52 160.24C123.554 159.999 123.65 159.77 123.799 159.577C123.948 159.384 124.145 159.233 124.37 159.14L134.72 154.86C134.946 154.767 135.192 154.735 135.434 154.766C135.676 154.798 135.906 154.892 136.1 155.04L144.98 161.67C145.179 161.819 145.334 162.017 145.431 162.246C145.527 162.474 145.562 162.724 145.53 162.97Z" fill="#EE8786"/>
<path d="M179.48 161.34C179.784 161.562 180.024 161.861 180.177 162.206C180.33 162.552 180.389 162.933 180.35 163.31L179.3 173.72C179.268 174.031 179.13 174.32 178.91 174.54C176.44 177 171.05 178.37 167.8 180.05C167.507 180.203 167.227 180.183 166.96 179.99L157.41 172.88C157.279 172.783 157.175 172.654 157.109 172.505C157.042 172.356 157.015 172.192 157.03 172.03L158.12 160.49C158.139 160.313 158.202 160.144 158.304 160C158.405 159.856 158.542 159.743 158.7 159.67L169.6 154.7C169.761 154.627 169.939 154.599 170.115 154.618C170.291 154.638 170.458 154.704 170.6 154.81L179.48 161.34Z" fill="#F7D15C"/>
<path d="M215.49 163.14L214.06 174.26C214.023 174.548 213.91 174.821 213.732 175.052C213.555 175.282 213.319 175.461 213.05 175.57L202.8 179.72C202.538 179.826 202.253 179.862 201.972 179.825C201.692 179.789 201.426 179.68 201.2 179.51L192.78 173.12C192.556 172.952 192.379 172.73 192.265 172.475C192.151 172.219 192.105 171.939 192.13 171.66L193.14 160.71C193.166 160.416 193.271 160.135 193.443 159.895C193.616 159.656 193.849 159.468 194.12 159.35L204.31 154.93C204.572 154.816 204.86 154.773 205.144 154.804C205.428 154.836 205.699 154.941 205.93 155.11L214.83 161.61C215.067 161.783 215.253 162.016 215.369 162.285C215.485 162.554 215.527 162.849 215.49 163.14Z" fill="#55B7DD"/>
</svg>
